<mxfile host="app.diagrams.net" agent="Mozilla/5.0 (Windows NT 10.0; Win64; x64) AppleWebKit/537.36 (KHTML, like Gecko) Chrome/128.0.0.0 Safari/537.36" version="24.7.12">
  <diagram name="Sayfa -1" id="r_9fzsrHF56UJzbbvP9M">
    <mxGraphModel dx="2336" dy="1990" grid="1" gridSize="10" guides="1" tooltips="1" connect="1" arrows="1" fold="1" page="1" pageScale="1" pageWidth="827" pageHeight="1169" math="0" shadow="0">
      <root>
        <mxCell id="0" />
        <mxCell id="1" parent="0" />
        <mxCell id="taqkGiib4RyaYYPtje6f-1" value="Entity" style="swimlane;childLayout=stackLayout;horizontal=1;startSize=50;horizontalStack=0;rounded=1;fontSize=14;fontStyle=0;strokeWidth=2;resizeParent=0;resizeLast=1;shadow=0;dashed=0;align=center;arcSize=4;whiteSpace=wrap;html=1;" vertex="1" parent="1">
          <mxGeometry x="214" y="30" width="160" height="120" as="geometry">
            <mxRectangle x="214" y="30" width="80" height="50" as="alternateBounds" />
          </mxGeometry>
        </mxCell>
        <mxCell id="taqkGiib4RyaYYPtje6f-2" value="&lt;span style=&quot;background-color: initial;&quot;&gt;+ AddComponent&lt;/span&gt;&lt;br&gt;+ GetComponent&lt;br&gt;- m_ComponentMap" style="align=left;strokeColor=none;fillColor=none;spacingLeft=4;fontSize=12;verticalAlign=top;resizable=0;rotatable=0;part=1;html=1;" vertex="1" parent="taqkGiib4RyaYYPtje6f-1">
          <mxGeometry y="50" width="160" height="70" as="geometry" />
        </mxCell>
        <mxCell id="taqkGiib4RyaYYPtje6f-5" style="edgeStyle=orthogonalEdgeStyle;rounded=0;orthogonalLoop=1;jettySize=auto;html=1;exitX=0.5;exitY=0;exitDx=0;exitDy=0;entryX=0.5;entryY=1;entryDx=0;entryDy=0;" edge="1" parent="1" source="taqkGiib4RyaYYPtje6f-3" target="taqkGiib4RyaYYPtje6f-2">
          <mxGeometry relative="1" as="geometry" />
        </mxCell>
        <mxCell id="taqkGiib4RyaYYPtje6f-3" value="GameEntity" style="swimlane;childLayout=stackLayout;horizontal=1;startSize=50;horizontalStack=0;rounded=1;fontSize=14;fontStyle=0;strokeWidth=2;resizeParent=0;resizeLast=1;shadow=0;dashed=0;align=center;arcSize=4;whiteSpace=wrap;html=1;" vertex="1" parent="1">
          <mxGeometry x="192" y="200" width="204" height="80" as="geometry">
            <mxRectangle x="214" y="200" width="80" height="50" as="alternateBounds" />
          </mxGeometry>
        </mxCell>
        <mxCell id="taqkGiib4RyaYYPtje6f-4" value="- TranfsormComponent transform" style="align=left;strokeColor=none;fillColor=none;spacingLeft=4;fontSize=12;verticalAlign=top;resizable=0;rotatable=0;part=1;html=1;" vertex="1" parent="taqkGiib4RyaYYPtje6f-3">
          <mxGeometry y="50" width="204" height="30" as="geometry" />
        </mxCell>
        <mxCell id="taqkGiib4RyaYYPtje6f-8" style="edgeStyle=orthogonalEdgeStyle;rounded=0;orthogonalLoop=1;jettySize=auto;html=1;exitX=0.5;exitY=0;exitDx=0;exitDy=0;entryX=0.5;entryY=1;entryDx=0;entryDy=0;" edge="1" parent="1" source="taqkGiib4RyaYYPtje6f-6" target="taqkGiib4RyaYYPtje6f-4">
          <mxGeometry relative="1" as="geometry" />
        </mxCell>
        <mxCell id="taqkGiib4RyaYYPtje6f-6" value="RenderableEntity" style="swimlane;childLayout=stackLayout;horizontal=1;startSize=50;horizontalStack=0;rounded=1;fontSize=14;fontStyle=0;strokeWidth=2;resizeParent=0;resizeLast=1;shadow=0;dashed=0;align=center;arcSize=4;whiteSpace=wrap;html=1;" vertex="1" parent="1">
          <mxGeometry x="164.5" y="340" width="259" height="80" as="geometry">
            <mxRectangle x="214" y="200" width="80" height="50" as="alternateBounds" />
          </mxGeometry>
        </mxCell>
        <mxCell id="taqkGiib4RyaYYPtje6f-7" value="+ virtual Render(mat4 projectionMatrix) = 0" style="align=left;strokeColor=none;fillColor=none;spacingLeft=4;fontSize=12;verticalAlign=top;resizable=0;rotatable=0;part=1;html=1;" vertex="1" parent="taqkGiib4RyaYYPtje6f-6">
          <mxGeometry y="50" width="259" height="30" as="geometry" />
        </mxCell>
        <mxCell id="taqkGiib4RyaYYPtje6f-14" style="edgeStyle=orthogonalEdgeStyle;rounded=0;orthogonalLoop=1;jettySize=auto;html=1;exitX=0.5;exitY=0;exitDx=0;exitDy=0;entryX=0.5;entryY=1;entryDx=0;entryDy=0;" edge="1" parent="1" source="taqkGiib4RyaYYPtje6f-9" target="taqkGiib4RyaYYPtje6f-7">
          <mxGeometry relative="1" as="geometry" />
        </mxCell>
        <mxCell id="taqkGiib4RyaYYPtje6f-9" value="MeshEntity" style="swimlane;childLayout=stackLayout;horizontal=1;startSize=50;horizontalStack=0;rounded=1;fontSize=14;fontStyle=0;strokeWidth=2;resizeParent=0;resizeLast=1;shadow=0;dashed=0;align=center;arcSize=4;whiteSpace=wrap;html=1;" vertex="1" parent="1">
          <mxGeometry x="2.25" y="480" width="260" height="90" as="geometry">
            <mxRectangle x="214" y="200" width="80" height="50" as="alternateBounds" />
          </mxGeometry>
        </mxCell>
        <mxCell id="taqkGiib4RyaYYPtje6f-10" value="+ void Render (mat4 projectionMatrix) override&lt;div&gt;- MeshRendererComponent renderer&lt;/div&gt;" style="align=left;strokeColor=none;fillColor=none;spacingLeft=4;fontSize=12;verticalAlign=top;resizable=0;rotatable=0;part=1;html=1;" vertex="1" parent="taqkGiib4RyaYYPtje6f-9">
          <mxGeometry y="50" width="260" height="40" as="geometry" />
        </mxCell>
        <mxCell id="taqkGiib4RyaYYPtje6f-13" style="edgeStyle=orthogonalEdgeStyle;rounded=0;orthogonalLoop=1;jettySize=auto;html=1;exitX=0.5;exitY=0;exitDx=0;exitDy=0;entryX=0.5;entryY=1;entryDx=0;entryDy=0;" edge="1" parent="1" source="taqkGiib4RyaYYPtje6f-11" target="taqkGiib4RyaYYPtje6f-7">
          <mxGeometry relative="1" as="geometry" />
        </mxCell>
        <mxCell id="taqkGiib4RyaYYPtje6f-11" value="ModelEntity" style="swimlane;childLayout=stackLayout;horizontal=1;startSize=50;horizontalStack=0;rounded=1;fontSize=14;fontStyle=0;strokeWidth=2;resizeParent=0;resizeLast=1;shadow=0;dashed=0;align=center;arcSize=4;whiteSpace=wrap;html=1;" vertex="1" parent="1">
          <mxGeometry x="325.75" y="480" width="260" height="90" as="geometry">
            <mxRectangle x="214" y="200" width="80" height="50" as="alternateBounds" />
          </mxGeometry>
        </mxCell>
        <mxCell id="taqkGiib4RyaYYPtje6f-12" value="+ void Render (mat4 projectionMatrix) override&lt;div&gt;- ModelRendererComponent renderer&lt;/div&gt;" style="align=left;strokeColor=none;fillColor=none;spacingLeft=4;fontSize=12;verticalAlign=top;resizable=0;rotatable=0;part=1;html=1;" vertex="1" parent="taqkGiib4RyaYYPtje6f-11">
          <mxGeometry y="50" width="260" height="40" as="geometry" />
        </mxCell>
        <mxCell id="taqkGiib4RyaYYPtje6f-15" value="MeshRenderData" style="swimlane;childLayout=stackLayout;horizontal=1;startSize=50;horizontalStack=0;rounded=1;fontSize=14;fontStyle=0;strokeWidth=2;resizeParent=0;resizeLast=1;shadow=0;dashed=0;align=center;arcSize=4;whiteSpace=wrap;html=1;" vertex="1" parent="1">
          <mxGeometry x="-590" y="300" width="160" height="160" as="geometry" />
        </mxCell>
        <mxCell id="taqkGiib4RyaYYPtje6f-16" value="-MeshData* meshData&lt;div&gt;-Texture* textureData&lt;/div&gt;&lt;div&gt;-Material* materialData&lt;/div&gt;&lt;div&gt;-Shader* shader&lt;/div&gt;" style="align=left;strokeColor=none;fillColor=none;spacingLeft=4;fontSize=12;verticalAlign=top;resizable=0;rotatable=0;part=1;html=1;" vertex="1" parent="taqkGiib4RyaYYPtje6f-15">
          <mxGeometry y="50" width="160" height="110" as="geometry" />
        </mxCell>
        <mxCell id="taqkGiib4RyaYYPtje6f-19" style="edgeStyle=orthogonalEdgeStyle;rounded=0;orthogonalLoop=1;jettySize=auto;html=1;exitX=0.5;exitY=1;exitDx=0;exitDy=0;entryX=0.5;entryY=1;entryDx=0;entryDy=0;" edge="1" parent="taqkGiib4RyaYYPtje6f-15" source="taqkGiib4RyaYYPtje6f-15" target="taqkGiib4RyaYYPtje6f-16">
          <mxGeometry relative="1" as="geometry" />
        </mxCell>
        <mxCell id="taqkGiib4RyaYYPtje6f-17" value="MeshData" style="swimlane;childLayout=stackLayout;horizontal=1;startSize=50;horizontalStack=0;rounded=1;fontSize=14;fontStyle=0;strokeWidth=2;resizeParent=0;resizeLast=1;shadow=0;dashed=0;align=center;arcSize=4;whiteSpace=wrap;html=1;" vertex="1" parent="1">
          <mxGeometry x="-810" y="300" width="190" height="160" as="geometry" />
        </mxCell>
        <mxCell id="taqkGiib4RyaYYPtje6f-18" value="+CreateMesh&lt;div&gt;+ClearMesh&lt;/div&gt;&lt;div&gt;-VAO&lt;/div&gt;&lt;div&gt;-VBO&lt;/div&gt;&lt;div&gt;IBO&lt;/div&gt;&lt;div&gt;IndexCount&lt;/div&gt;" style="align=left;strokeColor=none;fillColor=none;spacingLeft=4;fontSize=12;verticalAlign=top;resizable=0;rotatable=0;part=1;html=1;" vertex="1" parent="taqkGiib4RyaYYPtje6f-17">
          <mxGeometry y="50" width="190" height="110" as="geometry" />
        </mxCell>
        <mxCell id="taqkGiib4RyaYYPtje6f-37" style="edgeStyle=orthogonalEdgeStyle;rounded=0;orthogonalLoop=1;jettySize=auto;html=1;exitX=0.5;exitY=0;exitDx=0;exitDy=0;entryX=0.5;entryY=1;entryDx=0;entryDy=0;" edge="1" parent="1" source="taqkGiib4RyaYYPtje6f-21" target="taqkGiib4RyaYYPtje6f-35">
          <mxGeometry relative="1" as="geometry" />
        </mxCell>
        <mxCell id="taqkGiib4RyaYYPtje6f-21" value="MeshRendererComponent" style="swimlane;childLayout=stackLayout;horizontal=1;startSize=50;horizontalStack=0;rounded=1;fontSize=14;fontStyle=0;strokeWidth=2;resizeParent=0;resizeLast=1;shadow=0;dashed=0;align=center;arcSize=4;whiteSpace=wrap;html=1;" vertex="1" parent="1">
          <mxGeometry x="-760" y="-60" width="310" height="210" as="geometry" />
        </mxCell>
        <mxCell id="taqkGiib4RyaYYPtje6f-22" value="+Render(projectionMatrix) override&lt;div&gt;+RenderToDirLightShadowMap()&lt;/div&gt;&lt;div&gt;+RenderToPointLightShadowMap(PointLight* pointLight)&lt;/div&gt;&lt;div&gt;+DrawMesh&lt;/div&gt;&lt;div&gt;&lt;br&gt;&lt;/div&gt;&lt;div&gt;-MeshRenderData* meshRenderData&lt;/div&gt;&lt;div&gt;-Camera* camera&lt;/div&gt;&lt;div&gt;-Shader* dirShadowShader&lt;/div&gt;&lt;div&gt;-Shader* omniShadowShader&lt;/div&gt;&lt;div&gt;DirectionalLight* directionalLight&lt;/div&gt;&lt;div&gt;&lt;br&gt;&lt;/div&gt;" style="align=left;strokeColor=none;fillColor=none;spacingLeft=4;fontSize=12;verticalAlign=top;resizable=0;rotatable=0;part=1;html=1;" vertex="1" parent="taqkGiib4RyaYYPtje6f-21">
          <mxGeometry y="50" width="310" height="160" as="geometry" />
        </mxCell>
        <mxCell id="taqkGiib4RyaYYPtje6f-23" style="edgeStyle=orthogonalEdgeStyle;rounded=0;orthogonalLoop=1;jettySize=auto;html=1;exitX=0.5;exitY=1;exitDx=0;exitDy=0;entryX=0.5;entryY=1;entryDx=0;entryDy=0;" edge="1" parent="taqkGiib4RyaYYPtje6f-21" source="taqkGiib4RyaYYPtje6f-21" target="taqkGiib4RyaYYPtje6f-22">
          <mxGeometry relative="1" as="geometry" />
        </mxCell>
        <mxCell id="taqkGiib4RyaYYPtje6f-24" value="ModelData" style="swimlane;childLayout=stackLayout;horizontal=1;startSize=50;horizontalStack=0;rounded=1;fontSize=14;fontStyle=0;strokeWidth=2;resizeParent=0;resizeLast=1;shadow=0;dashed=0;align=center;arcSize=4;whiteSpace=wrap;html=1;" vertex="1" parent="1">
          <mxGeometry x="-810" y="480" width="190" height="160" as="geometry" />
        </mxCell>
        <mxCell id="taqkGiib4RyaYYPtje6f-25" value="+LoadModel&lt;div&gt;+ClearModel&lt;/div&gt;&lt;div&gt;-vector&amp;lt;MeshData*&amp;gt; m_MeshList&lt;/div&gt;&lt;div&gt;-vector&amp;lt;Texture*&amp;gt; m_TextureList;&lt;/div&gt;" style="align=left;strokeColor=none;fillColor=none;spacingLeft=4;fontSize=12;verticalAlign=top;resizable=0;rotatable=0;part=1;html=1;" vertex="1" parent="taqkGiib4RyaYYPtje6f-24">
          <mxGeometry y="50" width="190" height="110" as="geometry" />
        </mxCell>
        <mxCell id="taqkGiib4RyaYYPtje6f-26" value="ModelRenderData" style="swimlane;childLayout=stackLayout;horizontal=1;startSize=50;horizontalStack=0;rounded=1;fontSize=14;fontStyle=0;strokeWidth=2;resizeParent=0;resizeLast=1;shadow=0;dashed=0;align=center;arcSize=4;whiteSpace=wrap;html=1;" vertex="1" parent="1">
          <mxGeometry x="-590" y="480" width="160" height="160" as="geometry" />
        </mxCell>
        <mxCell id="taqkGiib4RyaYYPtje6f-27" value="-ModelData* modelData&lt;div&gt;-Texture* textureData&lt;/div&gt;&lt;div&gt;-Material* materialData&lt;/div&gt;&lt;div&gt;-Shader* shader&lt;/div&gt;" style="align=left;strokeColor=none;fillColor=none;spacingLeft=4;fontSize=12;verticalAlign=top;resizable=0;rotatable=0;part=1;html=1;" vertex="1" parent="taqkGiib4RyaYYPtje6f-26">
          <mxGeometry y="50" width="160" height="110" as="geometry" />
        </mxCell>
        <mxCell id="taqkGiib4RyaYYPtje6f-28" style="edgeStyle=orthogonalEdgeStyle;rounded=0;orthogonalLoop=1;jettySize=auto;html=1;exitX=0.5;exitY=1;exitDx=0;exitDy=0;entryX=0.5;entryY=1;entryDx=0;entryDy=0;" edge="1" parent="taqkGiib4RyaYYPtje6f-26" source="taqkGiib4RyaYYPtje6f-26" target="taqkGiib4RyaYYPtje6f-27">
          <mxGeometry relative="1" as="geometry" />
        </mxCell>
        <mxCell id="taqkGiib4RyaYYPtje6f-38" style="edgeStyle=orthogonalEdgeStyle;rounded=0;orthogonalLoop=1;jettySize=auto;html=1;exitX=0.5;exitY=0;exitDx=0;exitDy=0;entryX=0.5;entryY=1;entryDx=0;entryDy=0;" edge="1" parent="1" source="taqkGiib4RyaYYPtje6f-29" target="taqkGiib4RyaYYPtje6f-35">
          <mxGeometry relative="1" as="geometry" />
        </mxCell>
        <mxCell id="taqkGiib4RyaYYPtje6f-29" value="ModelRendererComponent" style="swimlane;childLayout=stackLayout;horizontal=1;startSize=50;horizontalStack=0;rounded=1;fontSize=14;fontStyle=0;strokeWidth=2;resizeParent=0;resizeLast=1;shadow=0;dashed=0;align=center;arcSize=4;whiteSpace=wrap;html=1;" vertex="1" parent="1">
          <mxGeometry x="-380" y="-60" width="310" height="210" as="geometry" />
        </mxCell>
        <mxCell id="taqkGiib4RyaYYPtje6f-30" value="+Render(projectionMatrix) override&lt;div&gt;+RenderToDirLightShadowMap()&lt;/div&gt;&lt;div&gt;+RenderToPointLightShadowMap(PointLight* pointLight)&lt;/div&gt;&lt;div&gt;+DrawMesh&lt;/div&gt;&lt;div&gt;&lt;br&gt;&lt;/div&gt;&lt;div&gt;-ModelRenderData* modelRenderData&lt;br&gt;&lt;/div&gt;&lt;div&gt;-Camera* camera&lt;/div&gt;&lt;div&gt;-Shader* dirShadowShader&lt;/div&gt;&lt;div&gt;-Shader* omniShadowShader&lt;/div&gt;&lt;div&gt;DirectionalLight* directionalLight&lt;/div&gt;&lt;div&gt;&lt;br&gt;&lt;/div&gt;" style="align=left;strokeColor=none;fillColor=none;spacingLeft=4;fontSize=12;verticalAlign=top;resizable=0;rotatable=0;part=1;html=1;" vertex="1" parent="taqkGiib4RyaYYPtje6f-29">
          <mxGeometry y="50" width="310" height="160" as="geometry" />
        </mxCell>
        <mxCell id="taqkGiib4RyaYYPtje6f-31" style="edgeStyle=orthogonalEdgeStyle;rounded=0;orthogonalLoop=1;jettySize=auto;html=1;exitX=0.5;exitY=1;exitDx=0;exitDy=0;entryX=0.5;entryY=1;entryDx=0;entryDy=0;" edge="1" parent="taqkGiib4RyaYYPtje6f-29" source="taqkGiib4RyaYYPtje6f-29" target="taqkGiib4RyaYYPtje6f-30">
          <mxGeometry relative="1" as="geometry" />
        </mxCell>
        <mxCell id="taqkGiib4RyaYYPtje6f-32" value="Component" style="swimlane;childLayout=stackLayout;horizontal=1;startSize=50;horizontalStack=0;rounded=1;fontSize=14;fontStyle=0;strokeWidth=2;resizeParent=0;resizeLast=1;shadow=0;dashed=0;align=center;arcSize=4;whiteSpace=wrap;html=1;" vertex="1" parent="1">
          <mxGeometry x="-508" y="-400" width="190" height="120" as="geometry" />
        </mxCell>
        <mxCell id="taqkGiib4RyaYYPtje6f-33" value="+AssignToEntity&lt;div&gt;&lt;br&gt;&lt;/div&gt;&lt;div&gt;-Entity* ownerEntity&lt;/div&gt;" style="align=left;strokeColor=none;fillColor=none;spacingLeft=4;fontSize=12;verticalAlign=top;resizable=0;rotatable=0;part=1;html=1;" vertex="1" parent="taqkGiib4RyaYYPtje6f-32">
          <mxGeometry y="50" width="190" height="70" as="geometry" />
        </mxCell>
        <mxCell id="taqkGiib4RyaYYPtje6f-36" style="edgeStyle=orthogonalEdgeStyle;rounded=0;orthogonalLoop=1;jettySize=auto;html=1;entryX=0.5;entryY=1;entryDx=0;entryDy=0;" edge="1" parent="1" source="taqkGiib4RyaYYPtje6f-34" target="taqkGiib4RyaYYPtje6f-33">
          <mxGeometry relative="1" as="geometry" />
        </mxCell>
        <mxCell id="taqkGiib4RyaYYPtje6f-34" value="RendererComponent" style="swimlane;childLayout=stackLayout;horizontal=1;startSize=50;horizontalStack=0;rounded=1;fontSize=14;fontStyle=0;strokeWidth=2;resizeParent=0;resizeLast=1;shadow=0;dashed=0;align=center;arcSize=4;whiteSpace=wrap;html=1;" vertex="1" parent="1">
          <mxGeometry x="-513" y="-240" width="200" height="120" as="geometry" />
        </mxCell>
        <mxCell id="taqkGiib4RyaYYPtje6f-35" value="+void Render(projectionMatrix) = 0" style="align=left;strokeColor=none;fillColor=none;spacingLeft=4;fontSize=12;verticalAlign=top;resizable=0;rotatable=0;part=1;html=1;" vertex="1" parent="taqkGiib4RyaYYPtje6f-34">
          <mxGeometry y="50" width="200" height="70" as="geometry" />
        </mxCell>
      </root>
    </mxGraphModel>
  </diagram>
</mxfile>
